HIERARCHY
ROOT Hips
{
	OFFSET 0.000000 0.000000 0.000000 
	CHANNELS 6 Xposition Yposition Zposition Zrotation Yrotation Xrotation
	JOINT LeftUpLeg
	{
		OFFSET 1.363060 -1.794630 0.839290 
		CHANNELS 3 Zrotation Yrotation Xrotation
		JOINT LeftLeg
		{
			OFFSET 2.448110 -6.726130 0.000000 
			CHANNELS 3 Zrotation Yrotation Xrotation
			JOINT LeftFoot
			{
				OFFSET 2.562200 -7.039590 0.000000 
				CHANNELS 3 Zrotation Yrotation Xrotation
				JOINT LeftToeBase
				{
					OFFSET 0.157640 -0.433110 2.322550 
					CHANNELS 3 Zrotation Yrotation Xrotation
					End Site
					{
						OFFSET 0.000000 0.000000 0.000000 
					}
				}
			}
		}
	}
	JOINT RightUpLeg
	{
		OFFSET -1.305520 -1.794630 0.839290 
		CHANNELS 3 Zrotation Yrotation Xrotation
		JOINT RightLeg
		{
			OFFSET -2.542530 -6.985550 0.000000 
			CHANNELS 3 Zrotation Yrotation Xrotation
			JOINT RightFoot
			{
				OFFSET -2.568260 -7.056230 0.000000 
				CHANNELS 3 Zrotation Yrotation Xrotation
				JOINT RightToeBase
				{
					OFFSET -0.164730 -0.452590 2.363150 
					CHANNELS 3 Zrotation Yrotation Xrotation
					End Site
					{
						OFFSET 0.000000 0.000000 0.000000 
					}
				}
			}
		}
	}
	JOINT Spine
	{
		OFFSET 0.028270 2.035590 -0.193380 
		CHANNELS 3 Zrotation Yrotation Xrotation
		JOINT Spine1
		{
			OFFSET 0.056720 2.048850 -0.042750 
			CHANNELS 3 Zrotation Yrotation Xrotation
			JOINT Neck1
			{
				OFFSET -0.054170 1.746240 0.172020 
				CHANNELS 3 Zrotation Yrotation Xrotation
				JOINT Head
				{
					OFFSET 0.104070 1.761360 -0.123970 
					CHANNELS 3 Zrotation Yrotation Xrotation
					End Site
					{
						OFFSET 0.000000 0.000000 0.000000 
					}
				}
			}
			JOINT LeftArm
			{
				OFFSET 3.362410 1.200890 -0.311210 
				CHANNELS 3 Zrotation Yrotation Xrotation
				JOINT LeftForeArm
				{
					OFFSET 4.983000 -0.000000 -0.000000 
					CHANNELS 3 Zrotation Yrotation Xrotation
					JOINT LeftHand
					{
						OFFSET 3.483560 -0.000000 -0.000000 
						CHANNELS 3 Zrotation Yrotation Xrotation
						JOINT LeftHandIndex1
						{
							OFFSET 0.715260 -0.000000 -0.000000 
							CHANNELS 3 Zrotation Yrotation Xrotation
							End Site
							{
								OFFSET 0.000000 0.000000 0.000000 
							}
						}
					}
				}
			}
			JOINT RightArm
			{
				OFFSET -3.136600 1.374050 -0.404650 
				CHANNELS 3 Zrotation Yrotation Xrotation
				JOINT RightForeArm
				{
					OFFSET -5.241900 -0.000000 -0.000000 
					CHANNELS 3 Zrotation Yrotation Xrotation
					JOINT RightHand
					{
						OFFSET -3.444170 -0.000000 -0.000000 
						CHANNELS 3 Zrotation Yrotation Xrotation
						JOINT RightHandIndex1
						{
							OFFSET -0.622530 -0.000000 -0.000000 
							CHANNELS 3 Zrotation Yrotation Xrotation
							End Site
							{
								OFFSET 0.000000 0.000000 0.000000 
							}
						}
					}
				}
			}
		}
	}
}
MOTION
Frames: 15
Frame Time: 0.041667
0.730883 17.559540 -2.930186 1.748833 1.701650 18.762151 -17.440270 -0.441779 -18.416558 0.616676 9.940952 27.056087 2.766056 -11.061987 -11.080095 0.130800 -2.331600 -6.423000 13.918585 6.330747 -46.025505 -3.608707 -15.099249 41.181706 0.163226 -3.560195 -8.462103 -0.378700 3.952000 -10.941700 0.805936 -1.464918 -9.538670 -0.251715 -0.553457 -0.332075 5.006109 -2.964920 13.613541 0.652800 -1.147300 4.796300 -96.332398 -4.781774 31.194625 17.345789 -34.818571 -5.149728 -0.173981 -0.684360 -1.387549 -7.125000 0.000000 0.000000 103.572871 -17.804310 -50.816742 -2.619883 9.433206 0.189780 -1.719299 0.514873 56.758109 7.125000 0.000000 0.000000 
0.720471 17.547518 -2.697364 1.924391 2.077326 18.767187 -17.499428 0.211647 -17.520892 0.511315 9.688170 26.333259 2.864025 -11.672925 -11.103556 0.199700 -2.877700 -7.938500 13.692172 6.080257 -45.922593 -2.713036 -14.156379 37.711595 0.299362 -4.357032 -8.148777 -0.704800 5.366000 -14.955400 0.833778 -1.596656 -9.530770 -0.140751 -0.617994 -0.325619 5.087929 -3.020257 13.534945 0.711300 -1.180300 4.739500 -95.965143 -5.585795 32.510011 18.222444 -35.839178 -5.561494 -0.129428 -0.692203 -2.602782 -7.125000 0.000000 0.000000 103.564798 -18.621016 -52.983063 -2.691981 9.404166 0.174605 -1.631882 0.607652 58.153620 7.125000 0.000000 0.000000 
0.718539 17.538609 -2.464542 1.732310 2.751008 18.741866 -17.133575 0.831272 -16.570901 0.416122 9.424923 25.608516 2.956688 -12.244287 -11.012377 0.279100 -3.397900 -9.388600 14.049047 5.426563 -45.768654 -1.859874 -13.133028 34.186498 0.446368 -5.117717 -7.484279 -1.482500 7.692900 -21.785200 0.881032 -1.745142 -9.451810 -0.315517 -0.711794 -0.128697 5.038024 -3.159316 13.315526 0.689200 -1.258100 4.617600 -95.646622 -6.578027 33.652046 19.063472 -36.805081 -5.978316 -0.108019 -0.690689 -3.580406 -7.125000 0.000000 0.000000 103.634522 -19.520751 -53.145295 -2.741128 9.537571 0.164070 -1.636797 0.580182 57.534546 7.125000 0.000000 0.000000 
0.709951 17.524547 -2.230969 1.888128 3.208058 18.712373 -17.113251 1.236373 -15.545071 0.323876 9.183008 24.936594 3.012454 -12.763019 -10.856747 0.285600 -3.436900 -9.497400 13.697284 5.214148 -45.367063 -1.088234 -12.043173 30.640130 0.411256 -4.854737 -7.134107 -1.296900 7.215300 -20.354700 0.905210 -1.817002 -9.339207 -0.249280 -0.757222 0.159374 4.963324 -3.285843 13.083374 0.638300 -1.327300 4.508700 -95.385854 -7.651385 34.946076 20.010942 -37.878492 -6.476750 -0.083598 -0.673811 -4.630784 -7.125000 0.000000 0.000000 103.710938 -20.194847 -53.786475 -2.815329 9.624545 0.167473 -1.681051 0.506586 57.242566 7.125000 0.000000 0.000000 
0.693958 17.508339 -1.997610 2.126292 3.516238 18.661316 -17.177585 1.809797 -14.575723 0.230610 8.928130 24.226310 3.062799 -13.265129 -10.731973 0.328500 -3.684000 -10.189200 13.015396 5.460993 -44.878759 -0.425563 -10.955959 27.238960 0.403369 -4.764643 -6.643610 -0.967500 6.262600 -17.548300 0.906112 -1.890022 -9.318261 -0.166081 -0.799142 0.124929 4.814153 -3.340608 12.692402 0.586100 -1.367500 4.811600 -95.018040 -8.430995 36.140579 21.028573 -38.975255 -7.043985 -0.045168 -0.637381 -6.011073 -7.125000 0.000000 0.000000 103.813996 -20.932984 -54.280545 -2.850715 9.642619 0.171747 -1.704886 0.449191 56.800978 7.125000 0.000000 0.000000 
0.680862 17.482362 -1.763285 2.290872 4.093657 18.627807 -17.095768 2.301972 -13.514597 0.107686 8.599011 23.325913 3.077307 -13.749797 -10.266553 0.404300 -4.082200 -11.308000 12.588975 5.311557 -44.584949 0.100320 -9.963422 24.240942 0.422678 -4.862221 -6.313889 -1.304400 7.235200 -20.414000 0.931640 -2.099299 -9.309586 -0.159037 -0.913422 0.103900 4.817245 -3.341313 12.564384 0.578600 -1.370200 4.688800 -94.607302 -9.024004 36.987222 22.002444 -39.982556 -7.588894 -0.032237 -0.613507 -6.990251 -7.125000 0.000000 0.000000 103.867141 -21.910183 -52.611528 -2.892708 9.901110 0.164425 -1.749353 0.342032 54.054794 7.125000 0.000000 0.000000 
0.669591 17.466154 -1.523486 2.643668 4.691524 18.632671 -17.194002 2.393872 -12.231764 -0.043911 8.242176 22.343167 3.024857 -13.630165 -9.998971 0.561900 -4.801400 -13.342900 12.181974 4.820849 -44.358436 0.494096 -9.074574 21.657050 0.305712 -4.206861 -6.295198 -1.869800 8.589400 -24.519200 0.958333 -2.313979 -9.278878 -0.013739 -1.026989 0.236383 4.882289 -3.360702 12.544188 0.619700 -1.380600 4.654400 -94.380177 -9.676399 37.483329 22.838774 -40.830024 -8.060787 -0.031632 -0.600930 -7.096186 -7.125000 0.000000 0.000000 103.906048 -22.696290 -52.667072 -2.950240 10.031335 0.152318 -1.746414 0.304579 52.949226 7.125000 0.000000 0.000000 
0.658750 17.470555 -1.280252 2.849739 5.203754 18.661261 -17.150064 2.284770 -10.857982 -0.201214 7.842241 21.252754 2.984409 -13.870407 -9.407547 0.484300 -4.462500 -12.381500 12.093180 4.235764 -44.377363 0.753939 -8.364201 19.640257 0.097927 -2.970813 -5.670989 -1.024500 6.438900 -18.063300 0.998452 -2.496978 -9.264460 0.103828 -1.125692 0.359140 4.830209 -3.441044 12.634062 0.576300 -1.416800 4.724700 -94.288710 -10.467877 37.443266 23.464705 -41.457208 -8.431208 -0.050585 -0.585945 -6.038488 -7.125000 0.000000 0.000000 103.868871 -23.283059 -54.081247 -2.965629 9.934278 0.155100 -1.720979 0.327648 53.505086 7.125000 0.000000 0.000000 
0.650485 17.466369 -1.041634 2.811523 5.940451 18.760986 -16.803285 2.184642 -9.588023 -0.360736 7.400318 20.066373 2.948054 -14.143030 -8.675486 0.443700 -4.273800 -11.848300 12.428934 3.380314 -44.818344 0.920026 -7.848890 18.186285 -0.101325 -1.743441 -4.880829 -0.597200 4.947100 -13.757600 1.084095 -2.777880 -9.234294 0.096749 -1.281712 0.568691 4.716817 -3.466848 12.720231 0.491300 -1.424500 4.829800 -94.097451 -11.140706 37.803605 24.343254 -42.300140 -8.952497 -0.046726 -0.566035 -6.574296 -7.125000 0.000000 0.000000 103.813994 -23.833674 -53.253270 -2.969626 10.032452 0.147834 -1.725613 0.282521 52.022754 7.125000 0.000000 0.000000 
0.645332 17.453488 -0.803874 3.153305 6.579401 18.902491 -16.881534 1.927395 -8.281551 -0.512986 6.989610 18.969554 2.861713 -14.078626 -8.037163 0.492900 -4.501300 -12.491500 12.576095 2.224518 -45.379105 1.023151 -7.424439 17.018547 -0.367301 -0.094236 -4.362038 -0.545800 4.733100 -13.148800 1.103021 -3.026409 -9.265161 0.113693 -1.420954 0.576365 4.658995 -3.442009 12.774918 0.440800 -1.407800 4.883600 -93.843248 -11.489055 38.194408 25.403261 -43.259968 -9.574818 -0.043455 -0.551930 -6.907758 -7.125000 0.000000 0.000000 103.876672 -24.550086 -51.810912 -3.057113 10.344665 0.128253 -1.746167 0.192161 49.871713 7.125000 0.000000 0.000000 
0.639536 17.433308 -0.558708 3.415799 7.021338 19.045055 -16.931645 1.758678 -7.135338 -0.611312 6.695340 18.204799 2.783190 -13.893095 -7.603734 0.613200 -5.011800 -13.942200 13.056576 1.005245 -46.025252 1.104111 -7.046728 15.997157 -0.633100 1.637933 -3.881756 -0.573700 4.850700 -13.483300 1.101547 -3.150831 -9.322323 0.099702 -1.493746 0.504544 4.602611 -3.473662 13.141297 0.362000 -1.409800 4.531600 -93.698573 -11.853816 38.509028 26.140884 -43.903295 -10.007500 -0.041863 -0.549202 -7.095017 -7.125000 0.000000 0.000000 103.863815 -25.215823 -52.048215 -3.082107 10.380734 0.121541 -1.736547 0.161110 49.332680 7.125000 0.000000 0.000000 
0.623327 17.405292 -0.310966 3.639308 7.373718 19.166910 -16.891433 1.402766 -6.154897 -0.661507 6.549330 17.812319 2.766068 -13.438771 -8.099131 0.863100 -5.924200 -16.564800 13.210758 0.468498 -46.417394 1.170846 -6.736031 15.137925 -0.781564 2.650478 -3.549240 -0.655800 5.179600 -14.421400 1.134413 -3.268390 -9.336533 0.242699 -1.547272 0.537086 4.535246 -3.481165 12.718459 0.397800 -1.438700 4.790700 -93.706264 -12.294916 38.693643 26.732411 -44.422668 -10.369261 -0.032246 -0.541955 -7.304735 -7.125000 0.000000 0.000000 103.810210 -25.649325 -52.595422 -3.078746 10.335281 0.110117 -1.705775 0.165322 49.326482 7.125000 0.000000 0.000000 
0.612164 17.378779 -0.067839 3.682068 7.840407 19.440769 -16.616186 0.752228 -5.494752 -0.660774 6.535603 17.799464 2.791623 -13.735879 -8.027408 0.853100 -5.890500 -16.467100 13.370892 0.150604 -46.737564 1.225249 -6.457146 14.370134 -0.915971 3.632499 -3.188158 -0.770000 5.603300 -15.637600 1.200703 -3.443819 -9.388784 0.295687 -1.627532 0.532554 4.483117 -3.527453 12.533655 0.405800 -1.476600 4.636600 -93.719653 -12.524780 38.816933 27.574534 -45.140850 -10.905183 -0.013551 -0.520698 -7.556367 -7.125000 0.000000 0.000000 103.669013 -26.202392 -51.433132 -3.077344 10.436162 0.095366 -1.697042 0.103168 47.658142 7.125000 0.000000 0.000000 
0.609373 17.344215 0.163373 3.449638 8.224888 19.922184 -16.130958 0.143571 -5.203001 -0.642944 6.554011 18.013283 2.623517 -14.958270 -4.665128 0.314300 -3.604200 -9.965600 13.698928 0.162804 -47.185787 1.265643 -6.272337 13.849810 -1.001122 4.327152 -3.001800 -0.808800 5.739500 -16.030300 1.303189 -3.626127 -9.547664 0.198410 -1.707679 0.298433 4.366930 -3.475954 12.442483 0.366800 -1.461000 4.568000 -93.687156 -12.443884 38.730725 28.535487 -45.909852 -11.517664 0.000420 -0.498041 -7.548471 -7.125000 0.000000 0.000000 103.416922 -26.482737 -53.063398 -3.061302 10.211646 0.112064 -1.675705 0.153612 49.031759 7.125000 0.000000 0.000000 
0.594131 17.309651 0.402528 2.981471 8.539456 20.141412 -15.347283 -0.199322 -4.854679 -0.565302 6.757660 18.597694 2.633310 -13.787199 -5.815361 1.298700 -7.219900 -20.368600 13.684368 1.077040 -46.918118 1.310697 -6.208950 13.618421 -0.911464 3.668997 -3.259921 -0.796400 5.696300 -15.905700 1.404933 -3.716318 -9.667279 0.042636 -1.748277 0.054886 4.190245 -3.436542 12.395678 0.267400 -1.446200 4.534200 -93.585323 -12.369970 38.677562 29.297540 -46.491430 -11.997275 0.006492 -0.487725 -7.745549 -7.125000 0.000000 0.000000 103.341013 -26.660832 -55.222455 -3.095541 10.054957 0.122793 -1.656806 0.208284 50.960920 7.125000 0.000000 0.000000 
